<?xml version="1.0" encoding="UTF-8" standalone="no"?>
<svg
   xmlns:dc="http://purl.org/dc/elements/1.1/"
   xmlns:cc="http://creativecommons.org/ns#"
   xmlns:rdf="http://www.w3.org/1999/02/22-rdf-syntax-ns#"
   xmlns:svg="http://www.w3.org/2000/svg"
   xmlns="http://www.w3.org/2000/svg"
   xmlns:sodipodi="http://sodipodi.sourceforge.net/DTD/sodipodi-0.dtd"
   xmlns:inkscape="http://www.inkscape.org/namespaces/inkscape"
   viewBox="0 0 700 700"
   class="css-tsyi71"
   version="1.1"
   id="svg4"
   sodipodi:docname="binance-logo.svg"
   width="700"
   height="700"
   inkscape:version="0.92.3 (2405546, 2018-03-11)"
   inkscape:export-filename="C:\Users\alex\sites\binance-logo-0.png"
   inkscape:export-xdpi="561.73712"
   inkscape:export-ydpi="561.73712">
  <metadata
     id="metadata10">
    <rdf:RDF>
      <cc:Work
         rdf:about="">
        <dc:format>image/svg+xml</dc:format>
        <dc:type
           rdf:resource="http://purl.org/dc/dcmitype/StillImage" />
        <dc:title></dc:title>
      </cc:Work>
    </rdf:RDF>
  </metadata>
  <defs
     id="defs8" />
  <sodipodi:namedview
     pagecolor="#ffffff"
     bordercolor="#666666"
     borderopacity="1"
     objecttolerance="10"
     gridtolerance="10"
     guidetolerance="10"
     inkscape:pageopacity="0"
     inkscape:pageshadow="2"
     inkscape:window-width="1600"
     inkscape:window-height="838"
     id="namedview6"
     showgrid="false"
     inkscape:zoom="0.33359375"
     inkscape:cx="1109.2992"
     inkscape:cy="-113.45152"
     inkscape:window-x="-8"
     inkscape:window-y="-8"
     inkscape:window-maximized="1"
     inkscape:current-layer="svg4" />
  <path
     d="m 48.454466,870.35292 -14.972238,14.9778 -15.116735,-14.9778 15.111179,-15.11118 z m 36.602512,-36.60251 25.787382,25.78737 15.11673,-15.10561 -40.904112,-40.77073 -40.904113,40.90411 15.116738,15.10562 z m 51.580312,21.49133 -14.9778,15.11118 15.11118,15.11118 15.10562,-15.11118 z M 85.056978,906.95543 59.269603,881.03467 44.152865,896.14585 85.056978,937.0444 125.96109,896.1403 110.84436,881.03467 Z m 0,-21.61916 15.111172,-15.11673 -15.111172,-14.97224 -15.111181,15.10562 15.111181,14.9778 z m 158.914692,1.55614 v -0.25565 c 0,-9.7703 -5.21306,-14.72215 -13.67731,-17.97892 5.20749,-2.86217 9.63691,-7.55836 9.63691,-15.76141 v -0.25566 c 0,-11.46537 -9.24787,-18.89036 -24.09785,-18.89036 h -33.99599 v 73.07719 h 34.77961 c 16.53949,0.12783 27.35463,-6.64691 27.35463,-19.92963 z m -20.06303,-31.25608 c 0,5.46871 -4.42942,7.68064 -11.5932,7.68064 h -14.8444 v -15.50021 h 15.88924 c 6.77474,0 10.54836,2.73435 10.54836,7.55837 z m 4.0404,29.17753 c 0,5.4687 -4.29604,7.9474 -11.33755,7.9474 h -19.14045 v -16.02819 h 18.62359 c 8.20861,0 11.85441,3.00112 11.85441,7.9474 z m 49.7574,22.14157 v -73.20502 h -16.15045 v 73.07719 h 16.15045 z m 86.4933,0 v -73.20502 h -15.8948 v 45.07233 l -34.25719,-45.07233 h -14.84998 v 73.07719 h 15.89481 v -46.37281 l 35.42985,46.50064 h 13.67175 z m 89.0887,0 -31.38389,-73.59405 h -14.84442 l -31.39501,73.59405 h 16.54504 l 6.64136,-16.41166 h 30.8726 l 6.64136,16.41166 h 16.93408 z M 423.9831,876.34404 h -19.40723 l 9.7703,-23.70327 z m 106.03389,30.61139 v -73.20502 h -15.8948 v 45.07233 l -34.2572,-45.07233 h -14.84996 v 73.07719 h 15.89481 v -46.37281 l 35.42985,46.50064 h 13.67175 z m 82.96976,-11.85441 -10.28715,-10.28716 c -5.73548,5.20749 -10.81514,8.59208 -19.27941,8.59208 -12.50465,0 -21.23011,-10.42054 -21.23011,-22.92519 v -0.38903 c 0,-12.50466 8.85329,-22.79182 21.23011,-22.79182 7.29161,0 13.02708,3.12338 18.75698,8.20305 l 10.28716,-11.85441 c -6.76918,-6.64136 -14.97778,-11.33199 -28.78292,-11.33199 -22.40279,0 -38.1642,17.0619 -38.1642,37.77517 v 0.2612 c 0,20.96892 16.01707,37.64179 37.51396,37.64179 14.06634,0.13338 22.40277,-4.81847 29.95558,-12.89369 z m 68.64776,11.85441 v -14.32755 h -39.73143 v -15.37239 h 34.51838 v -14.32755 h -34.51838 v -14.84997 h 39.20904 v -14.32756 h -55.09829 v 73.07719 h 55.62068 z"
     p-id="2935"
     id="path2"
     style="fill:#f0b90b;fill-opacity:1;stroke-width:0.1302568"
     inkscape:connector-curvature="0"
     inkscape:export-filename="C:\Users\alex\sites\binance-logo-4.png"
     inkscape:export-xdpi="101.31635"
     inkscape:export-ydpi="101.31635" />
  <path
     d="m 137.55295,479.70931 v -0.28905 c 0,-11.05466 -5.8985,-16.65756 -15.4755,-20.34237 5.8918,-3.23844 10.9038,-8.552 10.9038,-17.83335 v -0.28905 c 0,-12.97264 -10.4636,-21.37371 -27.2659,-21.37371 h -38.465 v 82.68379 h 39.3512 c 18.7141,0.14487 30.9514,-7.5207 30.9514,-22.54951 z m -22.7011,-35.36478 c 0,6.18758 -5.0113,8.69024 -13.1167,8.69024 h -16.796 V 435.4969 h 17.9782 c 7.6651,0 11.9345,3.09377 11.9345,8.55208 z m 4.572,33.01305 c 0,6.18765 -4.8607,8.99215 -12.8283,8.99215 H 84.93915 V 468.2145 h 21.0716 c 9.288,0 13.4131,3.39562 13.4131,8.99219 z m 56.298,25.05234 v -82.82853 h -18.2729 v 82.68379 h 18.2729 z m 97.8635,0 v -82.82853 h -17.9838 v 50.99753 l -38.7612,-50.99753 h -16.8015 v 82.68379 h 17.9841 v -52.46889 l 40.0872,52.61363 h 15.4692 z m 100.8,0 -35.5087,-83.26868 h -16.7963 l -35.5218,83.26868 h 18.7195 l 7.5146,-18.56917 h 34.931 l 7.515,18.56917 h 19.1597 z m -33.1576,-34.63554 h -21.9585 l 11.055,-26.81928 z m 119.9731,34.63554 v -82.82853 h -17.9838 v 50.99753 l -38.7611,-50.99753 h -16.8023 v 82.68379 h 17.9845 v -52.46889 l 40.0875,52.61363 h 15.4692 z m 93.8772,-13.4129 -11.6398,-11.63944 c -6.49,5.89212 -12.2369,9.72161 -21.8139,9.72161 -14.1485,0 -24.0209,-11.79044 -24.0209,-25.93887 v -0.44026 c 0,-14.14846 10.0173,-25.78798 24.0209,-25.78798 8.2499,0 14.7399,3.53396 21.2228,9.28149 l 11.6394,-13.41279 c -7.6592,-7.51443 -16.9468,-12.82167 -32.5665,-12.82167 -25.3476,0 -43.1813,19.30484 -43.1813,42.74095 v 0.29538 c 0,23.72555 18.1227,42.59013 42.4457,42.59013 15.9154,0.15086 25.3476,-5.45183 33.8936,-14.58869 z m 77.6716,13.4129 v -16.21111 h -44.9539 v -17.39323 h 39.0555 v -16.21097 h -39.0555 v -16.80215 h 44.3628 v -16.21107 h -62.3417 v 82.68379 h 62.9328 z"
     p-id="2935"
     id="path2-8"
     style="fill:#f0b90b;fill-opacity:1;stroke-width:0.1473801"
     inkscape:connector-curvature="0"
     sodipodi:nodetypes="cscssscccscssccsssssccsssccccccccccccccccccccccccccccccccccccccccccccccssssccssscccccccccccccccc"
     inkscape:export-filename="C:\Users\alex\sites\binance-logo-5.png"
     inkscape:export-xdpi="118.83305"
     inkscape:export-ydpi="118.83305" />
  <path
     d="m 298.83515,289.47331 -20.8923,20.90015 -21.0941,-20.90015 21.0864,-21.08621 z m 51.0757,-51.0755 35.9841,35.98399 21.0938,-21.07854 -57.0779,-56.8918 -57.078,57.078 21.0938,21.0785 z m 71.9757,29.98929 -20.9004,21.08621 21.0864,21.08634 21.0787,-21.08634 z m -71.9757,72.16188 -35.9842,-36.17019 -21.0938,21.08631 57.078,57.07019 57.0779,-57.078 -21.0938,-21.0785 z m 0,-30.16768 21.086,-21.09398 -21.086,-20.89252 -21.0861,21.07851 21.0861,20.90015 z"
     p-id="2935"
     id="path2-8-8"
     style="fill:#f0b90b;fill-opacity:1;stroke-width:0.18176168"
     inkscape:connector-curvature="0"
     sodipodi:nodetypes="cccccccccccccccccccccccccccccc"
     inkscape:export-filename="C:\Users\alex\sites\binance-logo-5.png"
     inkscape:export-xdpi="118.83305"
     inkscape:export-ydpi="118.83305" />
</svg>
